<svg width="20" height="16" viewBox="0 0 20 16" fill="none" xmlns="http://www.w3.org/2000/svg">
<path d="M13.7502 4.66667H3.67869L6.42279 1.92261C6.50017 1.84523 6.56156 1.75336 6.60344 1.65225C6.64532 1.55114 6.66687 1.44277 6.66687 1.33333C6.66687 1.22389 6.64532 1.11553 6.60344 1.01442C6.56156 0.913311 6.50017 0.821441 6.42279 0.744056C6.3454 0.666671 6.25353 0.605286 6.15242 0.563406C6.05132 0.521525 5.94295 0.499969 5.83351 0.499969C5.72407 0.499969 5.6157 0.521525 5.51459 0.563406C5.41349 0.605286 5.32162 0.666671 5.24423 0.744056L1.07755 4.91074C0.921284 5.06703 0.833496 5.279 0.833496 5.50001C0.833496 5.72103 0.921284 5.93299 1.07755 6.08929L5.24423 10.2559C5.40052 10.4122 5.61249 10.5 5.83351 10.5C6.05453 10.5 6.2665 10.4122 6.42279 10.2559C6.57907 10.0996 6.66687 9.88768 6.66687 9.66665C6.66687 9.44563 6.57907 9.23366 6.42279 9.07738L3.67869 6.33331H13.7502C14.7447 6.33331 15.6986 6.7284 16.4018 7.43166C17.1051 8.13493 17.5002 9.08875 17.5002 10.0833C17.5002 11.0779 17.1051 12.0317 16.4018 12.735C15.6986 13.4382 14.7447 13.8333 13.7502 13.8333H5.00017C4.77915 13.8333 4.56719 13.9211 4.41091 14.0774C4.25463 14.2337 4.16683 14.4456 4.16683 14.6667C4.16683 14.8877 4.25463 15.0996 4.41091 15.2559C4.56719 15.4122 4.77915 15.5 5.00017 15.5H13.7502C16.7369 15.5 19.1668 13.0701 19.1668 10.0833C19.1668 7.09652 16.7369 4.66667 13.7502 4.66667Z" fill="white"/>
</svg>
