<?xml version="1.0" encoding="UTF-8" standalone="no"?> <svg xmlns="http://www.w3.org/2000/svg" viewBox="0 0 512 512"><defs><style>.cls-1{fill:#4caf50;}.cls-2{fill:#fff;}</style></defs><g id="Layer_2" data-name="Layer 2"><g id="Bash_shell_script" data-name="Bash shell script"><path class="cls-1" d="M457,512H55A55.06,55.06,0,0,1,0,457V55A55.06,55.06,0,0,1,55,0H457a55.06,55.06,0,0,1,55,55V457A55.06,55.06,0,0,1,457,512Z"/><path class="cls-2" d="M378.51,145.22l-58-58.2A20.74,20.74,0,0,0,306,81H158a20.58,20.58,0,0,0-20.56,20.56V410.44A20.59,20.59,0,0,0,158,431H364a20.59,20.59,0,0,0,20.56-20.56V159.75A20.69,20.69,0,0,0,378.51,145.22ZM254.59,284.44c-1.66,9.28-10.48,16-21,16a29.26,29.26,0,0,1-21.75-9.34A6.84,6.84,0,0,1,222,281.93a15.8,15.8,0,0,0,11.62,4.85c4.12,0,7.11-2.46,7.52-4.74.54-3-4.25-5-5.73-5.57-7.45-2.75-14.07-5.69-14.35-5.81a7.32,7.32,0,0,1-1-.52,16.08,16.08,0,0,1-7.16-15.9A17.69,17.69,0,0,1,225.74,240c13.51-4.07,24.62,5.09,25.09,5.48a6.84,6.84,0,0,1-8.76,10.5c-.2-.15-6.11-4.78-12.39-2.89-2.6.79-3.11,2.46-3.21,3.14a2.48,2.48,0,0,0,.78,2.27c1.8.78,7.15,3.08,12.88,5.2C252.7,268.28,255.84,277.43,254.59,284.44Zm57.32,9.18a6.84,6.84,0,0,1-13.67,0V275.7H278.78v17.92a6.84,6.84,0,0,1-13.67,0V245.75a6.84,6.84,0,1,1,13.67,0V262h19.46V245.75a6.84,6.84,0,1,1,13.67,0Z"/></g></g></svg>