<svg width="400" height="350" viewBox="0 0 400 350" fill="none" xmlns="http://www.w3.org/2000/svg">
<path d="M396.17 157.094C395.014 156.22 371.203 138.675 348.693 142.852C343.241 116.23 322.31 99.6528 321.285 98.8553C317.899 96.2348 313.456 96.7855 310.657 100.203C308.996 102.216 294.544 121.091 298.629 164.025C298.922 166.987 298.157 169.911 296.529 172.019C295.064 173.937 293.03 175 290.8 175H283.329V126.389C283.329 121.015 279.602 116.667 274.996 116.667H233.33V68.0556V9.72222C233.33 4.34842 229.603 0 224.997 0H174.998C170.392 0 166.664 4.34842 166.664 9.72222V58.3333H124.998H74.999C70.3929 58.3333 66.6658 62.6817 66.6658 68.0556V116.667H24.9997C20.3936 116.667 16.6664 121.015 16.6664 126.389V175H8.33322C3.72716 175 0 179.348 0 184.722C0 333.898 93.2442 350 133.332 350C236.553 350 308.297 276.855 339.611 212.389C380.87 204.717 398.09 171.677 398.839 170.234C401.118 165.734 399.946 159.923 396.17 157.094Z" fill="#303C42"/>
<path d="M266.662 136.111H233.329V175H266.662V136.111Z" fill="#42A5F5"/>
<path d="M216.662 136.111H183.33V175H216.662V136.111Z" fill="#42A5F5"/>
<path d="M166.663 136.111H133.33V175H166.663V136.111Z" fill="#42A5F5"/>
<path d="M116.664 136.111H83.3309V175H116.664V136.111Z" fill="#42A5F5"/>
<path d="M216.662 77.7776H183.33V116.666H216.662V77.7776Z" fill="#42A5F5"/>
<path d="M216.662 19.4444H183.33V58.3333H216.662V19.4444Z" fill="#42A5F5"/>
<path d="M166.663 77.7776H133.33V116.666H166.663V77.7776Z" fill="#42A5F5"/>
<path d="M116.664 77.7776H83.3309V116.666H116.664V77.7776Z" fill="#42A5F5"/>
<path d="M66.6645 136.111H33.3316V175H66.6645V136.111Z" fill="#42A5F5"/>
<path d="M333.36 193.761C330.658 194.141 328.282 196.021 326.996 198.831C299.034 259.595 231.522 330.556 133.33 330.556C90.8991 330.556 20.4573 312.592 16.8115 194.445H290.799C297.83 194.445 304.275 191.084 308.946 184.988C313.731 178.741 316.01 170.329 315.196 161.86C313.308 142.036 316.075 129.066 318.761 121.623C325.01 128.668 333.327 140.801 333.327 155.556C333.327 158.917 334.825 162.05 337.282 163.835C339.708 165.563 342.8 165.753 345.388 164.253C355.3 158.423 369.395 163.322 378.965 168.373C371.771 177.222 357.285 190.495 333.36 193.761Z" fill="#42A5F5"/>
<path opacity="0.1" d="M345.388 164.253C343.574 165.304 341.577 165.24 339.671 164.685C324.028 178.856 309.512 194.784 296.048 211.822C258.132 259.8 198.414 301.389 120.736 301.389C93.7362 301.389 56.2153 294.369 29.3714 262.188C52.1972 319.893 100.899 330.556 133.33 330.556C231.522 330.556 299.034 259.595 326.996 198.831C328.282 196.021 330.658 194.141 333.36 193.761C357.285 190.495 371.771 177.222 378.965 168.373C369.395 163.322 355.3 158.423 345.388 164.253Z" fill="black"/>
<path d="M84.0144 272.222C93.219 272.222 100.681 263.517 100.681 252.778C100.681 242.039 93.219 233.333 84.0144 233.333C74.8098 233.333 67.348 242.039 67.348 252.778C67.348 263.517 74.8098 272.222 84.0144 272.222Z" fill="#303C42"/>
<path d="M91.1432 253.79C94.1155 253.79 96.525 250.979 96.525 247.511C96.525 244.044 94.1155 241.233 91.1432 241.233C88.1708 241.233 85.7613 244.044 85.7613 247.511C85.7613 250.979 88.1708 253.79 91.1432 253.79Z" fill="white"/>
<path d="M396.17 157.094C395.014 156.22 371.203 138.675 348.693 142.852C343.241 116.23 322.31 99.6528 321.285 98.8553C317.899 96.2348 313.456 96.7855 310.657 100.203C308.996 102.216 294.544 121.091 298.629 164.025C298.922 166.987 298.157 169.911 296.529 172.019C295.064 173.937 293.03 175 290.8 175H283.329V126.389C283.329 121.015 279.602 116.667 274.996 116.667H233.33V68.0556V9.72222C233.33 4.34842 229.603 0 224.997 0H174.998C170.392 0 166.664 4.34842 166.664 9.72222V58.3333H124.998H74.999C70.3929 58.3333 66.6658 62.6817 66.6658 68.0556V116.667H24.9997C20.3936 116.667 16.6664 121.015 16.6664 126.389V175H8.33322C3.72716 175 0 179.348 0 184.722C0 333.898 93.2442 350 133.332 350C236.553 350 308.297 276.855 339.611 212.389C380.87 204.717 398.09 171.677 398.839 170.234C401.118 165.734 399.946 159.923 396.17 157.094Z" fill="url(#paint0_linear_3_70)"/>
<defs>
<linearGradient id="paint0_linear_3_70" x1="25.9448" y1="101.011" x2="371.369" y2="239.072" gradientUnits="userSpaceOnUse">
<stop stop-color="white" stop-opacity="0.2"/>
<stop offset="1" stop-color="white" stop-opacity="0"/>
</linearGradient>
</defs>
</svg>
