<svg width="510" height="512" viewBox="0 0 76 105" fill="none" xmlns="http://www.w3.org/2000/svg">
<path d="M46.8848 78.75H27.1976C26.3236 78.75 25.5576 79.0801 24.9014 79.7351C24.2446 80.3919 23.9167 81.1567 23.9167 82.0318V101.719C23.9167 102.594 24.2457 103.36 24.9014 104.016C25.5576 104.67 26.3227 105 27.1976 105H46.8848C47.7588 105 48.5268 104.671 49.1804 104.016C49.8383 103.36 50.1667 102.594 50.1667 101.719V82.0318C50.1667 81.1567 49.8392 80.3919 49.1804 79.7351C48.5268 79.0784 47.7588 78.75 46.8848 78.75Z" fill="#42A5F5"/>
<path d="M72.4688 19.8112C70.2251 15.6801 67.3264 12.1954 63.7696 9.35091C60.215 6.50757 56.2186 4.23686 51.7883 2.54223C47.357 0.848176 42.9534 0 38.5759 0C21.9458 0 9.254 7.27357 0.500197 21.821C0.0630241 22.5316 -0.0878736 23.297 0.0486531 24.1176C0.186042 24.937 0.609994 25.6208 1.32108 26.1676L14.7795 36.4225C15.4905 36.8592 16.1746 37.0778 16.8314 37.0778C17.8164 37.0778 18.6637 36.6397 19.3757 35.7648C23.314 30.8435 26.2414 27.699 28.1559 26.3311C30.5088 24.7457 33.4621 23.9532 37.0181 23.9532C40.3551 23.9532 43.2949 24.8284 45.8397 26.5771C48.3834 28.3274 49.6541 30.351 49.6541 32.6479C49.6541 35.2171 48.9715 37.2962 47.6034 38.8822C46.2361 40.4677 43.9375 41.9982 40.7092 43.4754C36.4432 45.3892 32.5299 48.3564 28.9757 52.376C25.4188 56.396 23.6416 60.6754 23.6416 65.2142V68.9054C23.6416 69.9455 23.9273 70.9704 24.5027 71.9821C25.0776 72.9946 25.7746 73.5 26.5958 73.5H46.2904C47.1659 73.5 47.931 73.0771 48.5881 72.2266C49.2431 71.3813 49.5728 70.4923 49.5728 69.564C49.5728 68.1972 50.325 66.3632 51.8282 64.0675C53.3329 61.7706 55.206 59.9915 57.4508 58.7333C59.5832 57.5306 61.2503 56.5612 62.4552 55.8219C63.6612 55.0846 65.2328 53.8925 67.1755 52.2531C69.1174 50.6119 70.6221 48.9848 71.6875 47.372C72.7547 45.759 73.7127 43.6667 74.5606 41.0958C75.4103 38.5257 75.8333 35.7636 75.8333 32.8108C75.8328 28.2717 74.7104 23.938 72.4688 19.8112Z" fill="#42A5F5"/>
</svg>
