<svg width="331" height="376" viewBox="0 0 331 376" fill="none" xmlns="http://www.w3.org/2000/svg">
<path d="M119.308 106.48L120.372 130.291L103.351 161.35L76.7566 212.079L71.4377 254.526L90.5857 314.572L134.201 338.384H200.155L261.854 292.831L289.512 221.396L225.686 145.82L207.601 103.374L119.308 106.48Z" fill="#ECEFF1"/>
<path d="M270.364 165.491C253.344 141.679 239.515 127.185 232.068 97.1619C224.622 67.1385 234.196 75.4208 227.813 49.5386C224.622 36.0799 219.303 26.7623 213.984 19.5153C207.601 12.2683 200.155 8.12714 195.9 7.09185C186.326 1.91541 163.986 -6.3669 136.328 8.12713C107.606 22.6212 110.797 53.6798 116.116 116.832C116.116 120.974 115.053 126.15 112.925 130.291C108.67 139.609 101.223 147.891 94.8407 155.138C87.3943 165.491 79.9478 175.844 74.6289 187.232C61.8636 211.044 50.162 241.067 53.3533 252.455C58.6722 251.42 125.69 350.807 125.69 352.878C129.945 351.843 148.03 351.843 163.986 351.843C186.326 350.807 199.091 349.772 217.175 353.913C217.175 350.807 216.112 347.702 216.112 344.596C216.112 338.384 217.175 333.208 218.239 325.96C219.303 320.784 220.367 315.608 221.43 309.396C210.793 318.713 191.645 329.066 173.56 332.172C157.604 335.278 131.009 330.102 118.244 314.572C119.308 314.572 121.435 314.572 122.499 313.537C125.69 312.502 128.882 311.466 129.945 309.396C133.137 304.219 131.009 299.043 128.882 295.937C126.754 292.831 110.797 281.443 103.351 275.231C95.9045 269.02 91.6494 265.914 87.3943 261.773C87.3943 261.773 81.0116 255.561 78.884 253.49C76.7565 251.42 75.6927 249.349 74.6289 248.314C72.5014 243.137 71.4376 236.926 72.5014 228.643C73.5651 217.255 77.8203 207.938 83.1392 197.585C85.2667 193.444 90.5856 185.161 90.5856 185.161C90.5856 185.161 72.5014 228.643 82.0754 242.102C82.0754 242.102 83.1392 228.643 87.3943 215.185C90.5856 205.867 95.9045 192.408 102.287 185.161C108.67 177.914 124.627 150.997 125.69 134.432C125.69 127.185 126.754 119.938 126.754 114.762C122.499 110.621 196.964 100.268 201.219 111.656C202.282 115.797 217.175 153.067 225.686 172.738C229.941 182.055 235.26 190.338 238.451 200.691C241.642 212.079 243.77 227.608 243.77 243.137C243.77 246.243 243.77 251.42 242.706 256.596C244.834 256.596 286.321 213.114 237.387 176.879C237.387 176.879 267.173 190.338 268.237 217.255C269.301 238.996 259.726 256.596 257.599 259.702C258.663 259.702 279.938 269.02 281.002 269.02C285.257 269.02 293.767 265.914 293.767 265.914C294.831 262.808 298.023 254.526 298.023 251.42C305.469 227.608 287.385 189.302 270.364 165.491Z" fill="#263238"/>
<path d="M135.265 97.1623C142.902 97.1623 149.094 87.892 149.094 76.4565C149.094 65.021 142.902 55.7508 135.265 55.7508C127.627 55.7508 121.435 65.021 121.435 76.4565C121.435 87.892 127.627 97.1623 135.265 97.1623Z" fill="#ECEFF1"/>
<path d="M183.135 99.2327C193.122 99.2327 201.219 88.5719 201.219 75.4211C201.219 62.2703 193.122 51.6095 183.135 51.6095C173.147 51.6095 165.05 62.2703 165.05 75.4211C165.05 88.5719 173.147 99.2327 183.135 99.2327Z" fill="#ECEFF1"/>
<path d="M142.99 77.8731C142.106 71.066 138.082 65.9546 134.002 66.4565C129.921 66.9584 127.331 72.8835 128.215 79.6906C129.099 86.4977 133.123 91.6091 137.203 91.1072C141.283 90.6053 143.874 84.6801 142.99 77.8731Z" fill="#212121"/>
<path d="M182.071 93.0205C187.946 93.0205 192.708 86.9949 192.708 79.5618C192.708 72.1287 187.946 66.1031 182.071 66.1031C176.196 66.1031 171.433 72.1287 171.433 79.5618C171.433 86.9949 176.196 93.0205 182.071 93.0205Z" fill="#212121"/>
<path d="M323.554 307.325C319.298 305.254 311.852 302.149 305.469 292.831C302.278 287.654 303.342 273.16 298.023 266.949C294.831 262.808 290.576 264.878 289.513 264.878C279.939 266.949 257.599 281.443 242.706 264.878C240.579 262.808 237.387 259.702 232.069 259.702C226.75 259.702 224.622 261.772 222.494 265.913C220.367 270.055 220.367 273.16 220.367 283.513C220.367 291.796 220.367 301.113 219.303 308.36C217.176 325.96 213.984 336.313 213.984 346.666C213.984 358.054 217.176 365.301 221.431 368.407C224.622 371.513 229.941 373.583 241.643 373.583C253.344 373.583 260.791 369.442 268.237 362.195C273.556 357.019 277.811 354.948 292.704 344.595C304.406 337.348 322.49 328.031 325.681 324.925C327.809 322.854 331 321.819 331 315.607C331 310.431 326.745 308.36 323.554 307.325Z" fill="#FFC107"/>
<path d="M109.734 310.431C99.096 293.866 98.0323 290.76 90.5858 280.407C84.2031 270.055 70.374 250.384 61.8638 250.384C55.4811 250.384 52.2897 253.49 48.0346 257.631C43.7795 261.772 39.5244 271.09 32.0779 276.266C25.6953 281.443 7.61102 280.407 3.3559 286.619C-0.899214 292.831 7.61103 302.148 7.61103 317.678C7.61103 323.89 2.29213 328.031 1.22835 332.172C0.164567 337.348 -0.899212 340.454 1.22835 344.595C5.48346 350.807 10.8024 352.878 46.9709 360.125C66.1189 364.266 84.2031 374.619 95.9047 375.654C107.606 376.689 127.818 375.654 127.818 347.701C128.882 331.137 119.308 326.995 109.734 310.431Z" fill="#FFC107"/>
<path d="M129.946 123.044C123.563 118.903 118.244 114.762 118.244 108.55C118.244 102.338 122.499 100.268 128.882 95.0914C129.946 94.0561 141.647 83.7032 153.349 83.7032C165.05 83.7032 178.879 90.9502 184.198 93.0208C193.772 95.0914 203.346 97.162 202.283 104.409C201.219 114.762 200.155 116.832 189.517 122.009C182.071 124.079 168.242 135.468 158.668 135.468C154.412 135.468 148.03 135.468 143.775 134.432C140.583 133.397 135.264 128.221 129.946 123.044Z" fill="#FFC107"/>
<path d="M127.818 114.762C129.946 116.832 133.137 118.903 136.328 119.938C138.456 120.974 141.647 122.009 141.647 122.009C145.902 122.009 149.094 122.009 151.221 122.009C156.54 122.009 163.986 119.938 171.433 115.797C178.879 112.691 179.943 110.621 185.262 108.55C190.581 105.444 195.9 102.338 193.772 101.303C191.645 100.268 189.517 101.303 182.071 105.444C175.688 109.585 170.369 111.656 163.986 114.762C160.795 115.797 156.54 117.868 153.349 117.868C150.157 117.868 146.966 117.868 143.775 117.868C140.583 117.868 138.456 116.832 135.264 115.797C133.137 114.762 132.073 113.727 131.009 113.727C128.882 112.691 124.627 108.55 122.499 107.515C122.499 107.515 120.371 107.515 121.435 108.55C124.627 111.656 125.69 112.691 127.818 114.762Z" fill="#634703"/>
<path d="M159.732 91.9856C160.795 94.0562 162.923 94.0562 163.987 95.0915C165.05 96.1268 166.114 96.1268 166.114 96.1268C167.178 95.0915 166.114 93.0209 165.05 93.0209C165.05 90.9504 159.732 90.9503 159.732 91.9856Z" fill="#634703"/>
<path d="M142.711 94.0564C142.711 95.0916 144.838 96.1269 144.838 95.0916C145.902 94.0564 146.966 93.0211 148.03 93.0211C150.157 91.9858 149.093 90.9505 145.902 90.9505C143.775 91.9858 143.775 93.0211 142.711 94.0564Z" fill="#634703"/>
<path d="M245.897 277.302C245.897 278.337 245.897 279.372 245.897 280.408C248.025 284.549 253.344 285.584 257.599 285.584C263.982 285.584 270.364 281.443 273.556 277.302C273.556 276.267 274.619 275.231 275.683 274.196C277.811 271.09 278.875 269.02 279.938 267.984C279.938 267.984 278.875 266.949 278.875 265.914C277.811 263.843 274.619 261.773 270.364 260.737C267.173 259.702 261.854 258.667 259.727 258.667C250.152 257.631 244.834 260.737 241.642 263.843C241.642 263.843 242.706 263.843 242.706 264.878C244.834 266.949 245.897 269.02 245.897 272.125C246.961 274.196 245.897 275.231 245.897 277.302Z" fill="#455A64"/>
</svg>
