<svg width="350" height="350" viewBox="0 0 350 350" fill="none" xmlns="http://www.w3.org/2000/svg">
<path d="M349.892 175C341.875 225.977 326.277 240.878 298.653 275.125C271.029 304.143 231.293 352.593 175 349.892C124.023 341.875 109.122 326.277 74.8752 298.653C45.8573 271.029 -2.59303 231.293 0.108333 175C8.12529 124.023 23.7235 109.122 51.3471 74.8752C78.9708 45.8573 118.707 -2.59303 175 0.108333C225.977 8.12529 240.878 23.7235 275.125 51.3471C304.143 78.9708 352.593 118.707 349.892 175Z" fill="#3765AF"/>
<path d="M103.98 172.3C97.7062 170.47 93.4363 172.038 91.6064 176.308L79.0581 204.542L66.7712 176.308C64.9413 172.038 60.6714 170.47 54.3972 172.3C51.6959 173.171 50.3888 174.565 50.3888 177.877V210.642H58.6671V177.877L71.6511 206.372C73.0454 209.77 75.2239 211.077 79.3195 211.077C83.4151 211.077 85.3322 209.77 86.9008 206.372L99.7105 177.877V210.642H107.989V177.877C107.989 174.74 106.682 173.171 103.98 172.3Z" fill="white"/>
<path d="M146.156 205.325C145.982 205.325 130.471 205.325 128.031 205.325C123.413 205.238 123.151 202.886 123.151 201.927V183.976H114.873C115.134 184.063 114.873 202.014 114.96 202.45C114.96 206.545 120.188 210.293 128.467 210.293H146.156V212.471C146.156 213.255 146.766 215.957 141.451 216.567H115.221V222.144H141.276C145.459 222.144 154.435 220.575 154.435 213.342C154.435 213.168 154.435 183.802 154.435 183.802H146.156V205.325Z" fill="white"/>
<path d="M299.96 181.623C299.35 181.013 298.653 180.49 298.13 179.793C296.3 177.353 294.035 175.087 291.595 173.345C289.591 171.95 285.059 170.033 284.362 167.68C284.362 167.68 284.362 167.68 284.188 167.506C285.582 167.332 287.151 166.896 288.632 166.548C290.81 165.938 292.728 166.112 295.08 165.589C296.039 165.328 297.085 164.979 298.043 164.718C298.043 164.543 298.043 164.282 298.043 164.108C296.91 162.975 296.039 161.406 294.906 160.361C291.595 157.485 288.022 154.784 284.362 152.518C282.358 151.211 279.831 150.339 277.826 149.381C277.129 148.945 275.822 148.771 275.387 148.248C274.254 146.854 273.557 144.937 272.859 143.368C271.03 139.795 269.287 135.961 267.544 132.214C266.411 129.774 265.714 127.247 264.233 124.981C257.697 114.176 250.551 107.553 239.572 101.192C237.132 99.8849 234.43 99.362 231.468 98.6649C229.899 98.6649 228.33 98.4906 226.762 98.4035C225.803 97.9678 224.758 96.6607 223.799 96.1378C220.226 93.8722 210.815 88.9051 208.114 95.4407C206.371 99.5363 210.641 103.719 212.122 105.723C213.255 107.118 214.562 108.86 215.434 110.429C215.869 111.562 216.044 112.695 216.392 113.827C217.351 116.703 218.396 119.666 219.704 122.367C220.401 123.674 221.098 125.069 222.143 126.376C222.753 127.073 223.538 127.334 223.712 128.554C222.841 129.861 222.753 131.691 222.318 133.26C220.052 140.405 220.924 149.381 224.148 154.609C225.106 156.178 227.546 159.751 230.858 158.356C233.733 157.224 233.123 153.651 233.82 150.339C233.995 149.642 233.82 149.032 234.256 148.597V148.771C235.127 150.514 235.999 152.344 236.783 154.086C238.787 157.224 242.186 160.535 245.062 162.626C246.63 163.759 247.763 165.763 249.767 166.46V166.286C249.767 166.286 249.767 166.286 249.593 166.286C249.157 165.676 248.634 165.415 248.199 164.979C247.066 163.846 245.759 162.452 244.887 161.145C242.186 157.572 239.92 153.564 237.742 149.555C236.783 147.551 235.912 145.46 235.04 143.455C234.605 142.758 234.605 141.625 234.082 141.19C233.123 142.584 231.642 143.717 231.119 145.46C229.986 148.161 229.812 151.559 229.376 155.045C229.115 155.045 229.202 155.045 229.115 155.219C227.111 154.609 226.413 152.692 225.542 150.775C223.712 146.244 223.276 138.924 224.932 133.783C225.368 132.476 227.372 128.206 226.501 126.899C226.065 125.766 224.758 125.069 224.061 124.023C223.189 122.89 222.318 121.322 221.795 119.927C220.226 116.354 219.529 112.346 217.786 108.773C217.089 107.03 215.608 105.375 214.649 103.893C213.517 102.151 212.122 100.931 211.077 98.9263C210.815 98.2292 210.379 97.0964 210.815 96.3992C210.989 95.7893 211.251 95.7021 211.687 95.5278C212.558 94.8307 214.824 95.7021 215.695 96.1378C218.135 97.0964 219.965 97.9678 221.969 99.2749C222.841 99.8849 223.799 101.105 224.932 101.453C225.368 101.453 225.803 101.453 226.239 101.453C228.243 101.889 230.509 101.628 232.513 102.151C235.912 103.283 238.962 104.852 241.663 106.595C249.941 111.91 256.913 119.404 261.444 128.38C262.141 129.774 262.577 131.256 263.187 132.65C264.494 135.787 266.15 138.924 267.457 142.061C268.764 145.024 269.984 148.074 271.988 150.601C272.947 151.908 276.694 152.605 278.524 153.302C279.831 153.912 281.835 154.435 282.968 155.045C285.146 156.352 287.238 157.921 289.416 159.315C290.2 160.099 293.512 161.668 293.686 162.975C288.545 162.801 284.711 163.411 281.312 164.718C280.354 165.153 278.872 165.153 278.785 166.286C279.395 166.896 279.395 167.593 279.744 168.29C280.441 169.598 281.922 171.253 283.055 172.125C284.362 173.083 285.756 174.129 287.151 175.087C289.59 176.656 292.466 177.527 294.819 179.096C296.213 179.967 297.695 181.1 298.915 182.059C299.612 182.669 300.047 183.366 300.919 183.802V183.627C300.483 183.017 300.309 182.233 299.96 181.623Z" fill="white"/>
<path d="M226.239 108.077C226.239 108.077 226.239 108.077 226.239 108.251C226.239 108.251 226.239 108.251 226.413 108.251C227.023 109.21 227.807 109.994 228.417 110.778C229.027 111.737 229.376 112.783 229.812 113.741L229.986 113.567C230.857 112.957 231.293 111.824 231.293 110.43C230.857 109.994 230.857 109.558 230.596 109.123C230.073 108.513 229.202 108.251 228.766 107.816C227.633 107.816 226.936 107.99 226.239 108.077Z" fill="white"/>
<path d="M168.029 173.083C163.149 174.652 160.883 177.092 160.883 181.362V185.893C160.883 189.64 164.979 192.864 172.124 193.561C172.822 193.561 173.693 193.561 174.564 193.561H183.104C183.366 193.561 183.714 193.561 183.976 193.561C186.503 193.823 187.723 194.258 188.507 195.304C189.117 195.914 189.117 196.263 189.117 196.873V201.753C189.117 202.363 188.681 203.06 187.984 203.757C187.287 204.454 185.98 204.89 184.411 204.89C184.15 204.89 183.801 204.89 183.54 204.89H160.709V210.641H160.796H184.76C187.636 210.641 190.163 210.031 192.428 209.072C196.001 207.33 197.744 205.238 197.744 202.188V196.088C197.744 193.648 195.74 191.557 191.905 189.989C189.901 189.291 187.374 188.856 184.76 188.856H174.739C171.34 188.856 169.772 187.897 169.336 185.544C169.336 185.283 169.336 184.934 169.336 184.847V181.1C169.336 180.926 169.336 180.664 169.336 180.403C169.772 178.66 170.643 178.225 173.606 177.963C173.867 177.963 174.216 177.963 174.303 177.963H198.005V172.386H174.739C171.34 172.386 169.597 172.56 168.029 173.083Z" fill="white"/>
<path d="M257.871 200.794V172.299H249.593L249.419 200.881C249.419 206.545 253.688 209.682 262.228 210.292C263.1 210.292 263.797 210.467 264.668 210.467H286.366V204.89H264.581C259.701 204.89 257.871 203.757 257.871 200.794Z" fill="white"/>
<path d="M244.451 201.23V181.536C244.451 176.569 241.053 173.519 234.081 172.56C233.21 172.386 232.513 172.386 231.642 172.386H215.782C215.085 172.386 214.213 172.56 213.516 172.56C206.545 173.432 202.972 176.569 202.972 181.536V201.23C202.972 205.761 205.499 208.637 211.163 210.118C212.906 210.554 214.649 210.728 216.043 210.728H224.845L231.554 210.292L238.09 216.305H247.675L239.571 208.898C243.057 207.504 244.451 205.325 244.451 201.23ZM236.434 181.972V200.794C236.434 201.055 236.434 201.404 236.434 201.665C236.086 202.798 235.389 203.757 234.256 204.367L228.243 198.964H218.658L225.542 205.238H217.96C214.649 205.238 212.558 203.931 212.122 201.665C212.122 201.404 211.948 201.055 211.948 200.794V181.972C211.948 179.445 214.301 177.876 218.048 177.876H230.596C233.907 177.876 235.999 179.096 236.434 181.274C236.434 181.362 236.434 181.71 236.434 181.972Z" fill="white"/>
<path d="M297.346 208.899L295.777 205.064H294.035V210.641H295.167V206.372L296.736 210.641H297.607L299.176 206.372L299.35 210.641H300.483V205.064H298.74L297.346 208.899Z" fill="white"/>
<path d="M288.37 205.936H290.113V210.642H291.246V205.936H292.814V204.978H288.37V205.936Z" fill="white"/>
</svg>
