<svg width="350" height="350" viewBox="0 0 350 350" fill="none" xmlns="http://www.w3.org/2000/svg">
<path d="M349.892 175C341.875 225.977 326.277 240.878 298.653 275.125C271.029 304.143 231.293 352.593 175 349.892C124.023 341.875 109.122 326.277 74.8752 298.653C45.8573 271.029 -2.59303 231.293 0.108333 175C8.12529 124.023 23.7235 109.122 51.3471 74.8752C78.9708 45.8573 118.707 -2.59303 175 0.108333C225.977 8.12529 240.878 23.7235 275.125 51.3471C304.143 78.9708 352.593 118.707 349.892 175Z" fill="#3765AF"/>
<path d="M106.594 154.87C113.479 154.87 117.748 156.003 120.014 158.617C122.28 160.883 122.541 165.501 121.408 171.165C120.276 177.439 118.01 181.971 114.263 184.585C110.864 187.112 105.462 188.593 98.316 188.593H87.5105L94.0461 154.347C94.0461 154.87 106.594 154.87 106.594 154.87ZM63.2854 223.275H80.975L84.9835 201.577H100.407C107.292 201.577 112.346 200.967 116.964 199.573C121.234 198.179 125.243 195.826 128.641 192.428C131.517 189.9 134.044 186.415 136.048 183.278C137.791 180.141 139.185 176.132 139.795 172.472C141.538 162.8 140.405 155.393 135.787 149.99C131.255 144.587 123.848 141.973 113.566 141.973H79.3193L63.2854 223.275Z" fill="white"/>
<path d="M157.659 120.362H175.349L171.34 142.061H187.025C196.698 142.061 203.844 143.803 207.242 147.463C210.989 150.862 212.383 156.613 210.379 164.281L202.972 202.188H185.021L192.167 166.286C193.038 162.277 192.777 159.402 191.295 158.007C189.901 156.613 187.025 155.742 182.494 155.742H168.552L159.402 202.188H141.712L157.659 120.362Z" fill="white"/>
<path d="M249.418 154.87C256.302 154.87 260.572 156.003 262.838 158.617C265.103 160.883 265.365 165.501 264.232 171.165C263.099 177.439 260.834 181.971 257.087 184.585C253.688 187.112 248.285 188.593 241.14 188.593H230.334L236.87 154.347C237.218 154.87 249.418 154.87 249.418 154.87ZM206.371 223.275H224.06L228.069 201.577H243.493C250.377 201.577 255.431 200.967 260.049 199.573C264.319 198.179 268.328 195.826 271.726 192.428C274.602 189.9 277.129 186.415 279.133 183.278C280.876 180.141 282.27 176.132 282.88 172.472C284.623 162.8 283.49 155.393 278.872 149.99C274.34 144.587 266.933 141.973 256.651 141.973H222.404L206.371 223.275Z" fill="white"/>
</svg>
