<svg width="350" height="350" viewBox="0 0 350 350" fill="none" xmlns="http://www.w3.org/2000/svg">
<path d="M173.738 0C84.8866 6.37057e-06 90.435 38.7332 90.435 38.7332L90.5341 78.8603H175.323V90.9084H56.8562C56.8562 90.9084 0 84.4267 0 174.548C-6.33713e-06 264.67 49.6254 261.474 49.6254 261.474H79.2421V219.654C79.2421 219.654 77.6457 169.769 128.075 169.769H212.171C212.171 169.769 259.419 170.537 259.419 123.866V46.6989C259.419 46.6989 266.592 0 173.738 0ZM126.985 26.9838C135.421 26.9838 142.24 33.8377 142.24 42.3177C142.24 50.7978 135.421 57.6517 126.985 57.6517C118.55 57.6517 111.731 50.7978 111.731 42.3177C111.731 33.8377 118.55 26.9838 126.985 26.9838Z" fill="url(#paint0_linear_3_32)"/>
<path d="M176.262 350C265.113 350 259.565 311.267 259.565 311.267L259.466 271.14H174.677V259.092H293.144C293.144 259.092 350 265.573 350 175.452C350 85.3303 300.375 88.5262 300.375 88.5262H270.758V130.346C270.758 130.346 272.354 180.231 221.925 180.231H137.829C137.829 180.231 90.5812 179.463 90.5812 226.133V303.301C90.5812 303.301 83.4076 350 176.262 350ZM223.015 323.016C214.579 323.016 207.76 316.162 207.76 307.682C207.76 299.202 214.579 292.348 223.015 292.348C231.45 292.348 238.269 299.202 238.269 307.682C238.269 316.162 231.45 323.016 223.015 323.016Z" fill="url(#paint1_linear_3_32)"/>
<defs>
<linearGradient id="paint0_linear_3_32" x1="3363.57" y1="3148.15" x2="20797.9" y2="20318.7" gradientUnits="userSpaceOnUse">
<stop stop-color="#387EB8"/>
<stop offset="1" stop-color="#366994"/>
</linearGradient>
<linearGradient id="paint1_linear_3_32" x1="5054.95" y1="5469.72" x2="23773.1" y2="23072.4" gradientUnits="userSpaceOnUse">
<stop stop-color="#FFE052"/>
<stop offset="1" stop-color="#FFC331"/>
</linearGradient>
</defs>
</svg>
